<svg width="50" height="50" viewBox="0 0 50 50" fill="none" xmlns="http://www.w3.org/2000/svg">
<path d="M24.9996 43.9222C24.6878 43.922 24.3873 43.8052 24.1571 43.5947L12.0146 32.4997H7.32715C6.99563 32.4997 6.67769 32.368 6.44326 32.1336C6.20884 31.8992 6.07715 31.5812 6.07715 31.2497V18.7497C6.07715 18.4182 6.20884 18.1002 6.44326 17.8658C6.67769 17.6314 6.99563 17.4997 7.32715 17.4997H12.0146L24.1571 6.40471C24.3361 6.24142 24.5587 6.13365 24.7978 6.09453C25.0369 6.05541 25.2822 6.08661 25.5039 6.18435C25.7256 6.28208 25.9141 6.44213 26.0465 6.64503C26.1789 6.84793 26.2495 7.08494 26.2496 7.32721V42.6722C26.2496 43.0037 26.1179 43.3217 25.8835 43.5561C25.6491 43.7905 25.3312 43.9222 24.9996 43.9222V43.9222ZM8.57715 29.9997H12.4996C12.8115 30 13.112 30.1168 13.3421 30.3272L23.7496 39.8272V10.1622L13.3421 19.6622C13.1135 19.8763 12.8128 19.9967 12.4996 19.9997H8.57715V29.9997Z" fill="#574C4C"/>
<path d="M29.8508 30.6327C29.6038 30.6327 29.3623 30.5594 29.1569 30.4222C28.9514 30.285 28.7912 30.09 28.6965 29.8618C28.6019 29.6337 28.5769 29.3826 28.6248 29.1402C28.6727 28.8979 28.7914 28.6752 28.9658 28.5002C29.8928 27.5713 30.4134 26.3125 30.4134 25.0002C30.4134 23.6879 29.8928 22.4292 28.9658 21.5002C28.7381 21.2645 28.6121 20.9487 28.615 20.621C28.6178 20.2932 28.7493 19.9797 28.981 19.748C29.2128 19.5162 29.5263 19.3847 29.8541 19.3819C30.1818 19.379 30.4975 19.505 30.7333 19.7327C32.1283 21.1308 32.9118 23.0252 32.9118 25.0002C32.9118 26.9753 32.1283 28.8696 30.7333 30.2677C30.499 30.5014 30.1817 30.6326 29.8508 30.6327V30.6327Z" fill="#574C4C"/>
<path d="M34.27 35.0522C34.0225 35.0527 33.7804 34.9796 33.5744 34.8423C33.3684 34.7049 33.2079 34.5096 33.1131 34.2809C33.0183 34.0522 32.9935 33.8005 33.0419 33.5577C33.0903 33.315 33.2098 33.092 33.385 32.9172C34.425 31.8776 35.25 30.6433 35.8128 29.2848C36.3757 27.9263 36.6654 26.4702 36.6654 24.9997C36.6654 23.5292 36.3757 22.0731 35.8128 20.7146C35.25 19.3561 34.425 18.1218 33.385 17.0822C33.2656 16.9669 33.1704 16.829 33.1049 16.6765C33.0394 16.524 33.0049 16.3599 33.0035 16.194C33.002 16.028 33.0337 15.8634 33.0965 15.7098C33.1594 15.5562 33.2522 15.4166 33.3695 15.2992C33.4869 15.1819 33.6265 15.089 33.7801 15.0262C33.9337 14.9633 34.0983 14.9317 34.2643 14.9332C34.4302 14.9346 34.5943 14.9691 34.7468 15.0346C34.8993 15.1001 35.0372 15.1953 35.1525 15.3147C36.4246 16.5865 37.4336 18.0963 38.1221 19.7581C38.8105 21.4199 39.1648 23.201 39.1648 24.9997C39.1648 26.7984 38.8105 28.5796 38.1221 30.2413C37.4336 31.9031 36.4246 33.413 35.1525 34.6847C34.9187 34.9193 34.6013 35.0515 34.27 35.0522Z" fill="#574C4C"/>
<path d="M38.0005 38.7828C37.7535 38.7827 37.512 38.7095 37.3065 38.5723C37.1011 38.4351 36.9409 38.2401 36.8462 38.0119C36.7515 37.7837 36.7266 37.5326 36.7745 37.2903C36.8224 37.0479 36.9411 36.8252 37.1155 36.6503C40.2048 33.5603 41.9403 29.3697 41.9403 25.0003C41.9403 20.6308 40.2048 16.4403 37.1155 13.3503C36.9961 13.235 36.9009 13.097 36.8354 12.9445C36.7699 12.792 36.7354 12.628 36.7339 12.462C36.7325 12.2961 36.7641 12.1315 36.827 11.9778C36.8898 11.8242 36.9826 11.6847 37.1 11.5673C37.2174 11.4499 37.3569 11.3571 37.5106 11.2943C37.6642 11.2314 37.8288 11.1998 37.9948 11.2012C38.1607 11.2027 38.3248 11.2371 38.4773 11.3027C38.6298 11.3682 38.7677 11.4634 38.883 11.5828C40.645 13.3448 42.0428 15.4366 42.9964 17.7388C43.95 20.0409 44.4408 22.5084 44.4408 25.0003C44.4408 27.4921 43.95 29.9596 42.9964 32.2618C42.0428 34.564 40.645 36.6558 38.883 38.4178C38.6487 38.6514 38.3314 38.7827 38.0005 38.7828Z" fill="#574C4C"/>
</svg>
